Coordinates
version=1
nRows=21
nColumns=22
inDegrees=yes

Units are S.I. units (second, meters, Newtons, ...)
If the header above contains a line with 'inDegrees', this indicates whether rotational values are in degrees (yes) or radians (no).

endheader
time	pelvis_tilt	pelvis_list	pelvis_rotation	pelvis_tx	pelvis_ty	pelvis_tz	hip_flexion_r	hip_adduction_r	hip_rotation_r	knee_angle_r	ankle_angle_r	subtalar_angle_r	hip_flexion_l	hip_adduction_l	hip_rotation_l	knee_angle_l	ankle_angle_l	subtalar_angle_l	lumbar_extension	lumbar_bending	lumbar_rotation
      1.88000000	     -3.06606191	     -3.05945214	    127.51393920	     -0.56663392	      1.05090864	      0.81422191	    -11.34859593	      5.45080928	     12.38349902	    -13.59372324	     17.11050960	    -14.05503147	     22.88775469	     -1.12718084	     14.28435435	     -9.25285638	      8.31613422	     14.91889059	     -2.84026496	     -2.77088150	      0.54869047
      1.89000000	     -2.97762104	     -3.12618756	    126.70968570	     -0.57327602	      1.04971489	      0.80662186	    -11.69517147	      5.23565492	     12.99245148	    -13.83242352	     17.04908675	    -13.80243490	     22.92362386	     -1.11821784	     14.11158277	     -8.53081477	      8.46688704	     15.36699740	     -2.59898353	     -2.72757309	      0.54562648
      1.90000000	     -2.84955573	     -3.17908831	    125.91535303	     -0.57995263	      1.04848650	      0.79888458	    -12.02032182	      5.05926584	     13.64288701	    -14.09448430	     16.93510630	    -13.57351722	     23.05371341	     -1.11643567	     13.73326050	     -8.25099769	      8.60560921	     15.48137450	     -2.34721018	     -2.64243947	      0.56857520
      1.91000000	     -2.71789386	     -3.22092406	    125.12779767	     -0.58668060	      1.04724619	      0.79097987	    -12.34393508	      4.88816572	     14.29816662	    -14.38387165	     16.78842767	    -13.28157691	     23.24996644	     -1.09151379	     13.17025960	     -8.40729526	      8.82405255	     15.39626172	     -2.10527111	     -2.55534272	      0.62531884
      1.92000000	     -2.55987245	     -3.27761013	    124.35306779	     -0.59342917	      1.04595808	      0.78293687	    -12.62090380	      4.73182959	     14.97638138	    -14.71642729	     16.63211086	    -12.83322983	     23.52145634	     -1.05183041	     12.53435708	     -8.92615226	      8.95136913	     14.98800661	     -1.84136509	     -2.45971183	      0.69532184
      1.93000000	     -2.40204562	     -3.33465120	    123.59474713	     -0.60019244	      1.04466016	      0.77473155	    -12.87038586	      4.58177258	     15.61583285	    -15.10726040	     16.41456849	    -12.41342942	     23.81595669	     -0.99007218	     11.91890456	     -9.74576344	      9.02934163	     14.29216697	     -1.58728916	     -2.37532670	      0.77140199
      1.94000000	     -2.25789772	     -3.39714845	    122.83060669	     -0.60688962	      1.04338986	      0.76637373	    -13.08608946	      4.42803607	     16.29370503	    -15.57775267	     16.19445825	    -12.00424723	     24.09051347	     -0.91410014	     11.41284368	    -10.75288951	      8.93859073	     13.51261539	     -1.35345029	     -2.31918423	      0.85074913
      1.95000000	     -2.13704866	     -3.48514408	    122.09371974	     -0.61358432	      1.04216458	      0.75789599	    -13.24657499	      4.25503892	     16.90504790	    -16.13538184	     15.94749272	    -11.51187113	     24.35312180	     -0.78819918	     11.13953932	    -11.90025375	      8.65638132	     12.61981359	     -1.12342873	     -2.31456561	      0.93630606
      1.96000000	     -2.05882031	     -3.60450175	    121.37052975	     -0.62022784	      1.04104866	      0.74930569	    -13.33063859	      4.05004957	     17.45444726	    -16.82283931	     15.64638202	    -10.93953302	     24.58083596	     -0.60347578	     11.12458820	    -13.10822341	      8.17355585	     11.76828556	     -0.90186570	     -2.38249152	      1.01338377
      1.97000000	     -2.03798543	     -3.76360177	    120.65184688	     -0.62679930	      1.04009889	      0.74062190	    -13.32048351	      3.79999050	     17.94357715	    -17.66462007	     15.28059640	    -10.27303654	     24.77451348	     -0.34798339	     11.36256940	    -14.33445835	      7.50123980	     11.07184037	     -0.68735718	     -2.54080695	      1.09666867
      1.98000000	     -2.07503358	     -3.95288419	    119.96302245	     -0.63332647	      1.03937130	      0.73187050	    -13.20648194	      3.52248468	     18.34632610	    -18.68722741	     14.78541845	     -9.43974110	     24.92688245	     -0.01662334	     11.86581117	    -15.54123240	      6.73037731	     10.52142831	     -0.48371895	     -2.77922852	      1.13133113
      1.99000000	     -2.18646846	     -4.15856966	    119.26571584	     -0.63977329	      1.03889020	      0.72303222	    -12.98241676	      3.20631608	     18.65551573	    -19.92911462	     14.17494716	     -8.47317572	     25.04339867	      0.37595907	     12.45743894	    -16.75758812	      6.00005074	     10.17082892	     -0.30725981	     -3.10205611	      1.17615258
      2.00000000	     -2.33967176	     -4.33923491	    118.56955857	     -0.64612813	      1.03869508	      0.71410278	    -12.66200117	      2.90682345	     18.88170530	    -21.38996112	     13.34489078	     -7.29708521	     25.10350149	      0.77577091	     13.07229770	    -17.96508357	      5.39887755	      9.92901591	     -0.17645515	     -3.45037805	      1.19558409
      2.01000000	     -2.54599268	     -4.50196868	    117.84675157	     -0.65236358	      1.03875807	      0.70507757	    -12.22228950	      2.60379082	     19.01204376	    -23.09694917	     12.32077256	     -5.96530878	     25.09495716	      1.17668368	     13.59136990	    -19.13155891	      4.94910137	      9.76605753	     -0.08281078	     -3.83827292	      1.24775986
      2.02000000	     -2.75336355	     -4.60985999	    117.10123366	     -0.65844854	      1.03907381	      0.69596648	    -11.67445701	      2.36289773	     19.08788503	    -25.02545213	     10.98146920	     -4.39427439	     25.00637845	      1.50469131	     13.93208271	    -20.24025768	      4.72788007	      9.61140547	     -0.03606782	     -4.18774915	      1.28600387
      2.03000000	     -2.96518786	     -4.67028763	    116.32175607	     -0.66434522	      1.03960342	      0.68682922	    -10.99819711	      2.17084851	     19.09653808	    -27.18159138	      9.35056125	     -2.65156487	     24.82041388	      1.75738019	     14.05237977	    -21.24447910	      4.73313887	      9.44838426	     -0.03727156	     -4.50729663	      1.33309982
      2.04000000	     -3.17741670	     -4.68637381	    115.53811130	     -0.67007658	      1.04031565	      0.67774764	    -10.19008155	      2.02569513	     19.00203387	    -29.53954731	      7.42673490	     -0.73014910	     24.52835765	      1.94368407	     13.95748171	    -22.10955140	      4.96380233	      9.25343230	     -0.09086975	     -4.79289222	      1.32632841
      2.05000000	     -3.40929248	     -4.69732955	    114.69535646	     -0.67552997	      1.04116584	      0.66878028	     -9.20470363	      1.88270959	     18.86845521	    -32.10276273	      5.24776207	      1.25918152	     24.12772688	      2.07413354	     13.60433765	    -22.77127181	      5.31479903	      9.02729728	     -0.17012308	     -5.08595675	      1.35556817
      2.06000000	     -3.66674633	     -4.69996119	    113.82131261	     -0.68072422	      1.04212576	      0.65998716	     -8.05736345	      1.73225245	     18.66112981	    -34.83047299	      2.88079953	      3.26031157	     23.62167356	      2.16589537	     12.99453749	    -23.23470649	      5.77778742	      8.76918422	     -0.28608628	     -5.39221434	      1.35862944
      2.07000000	     -3.96216677	     -4.70342250	    112.92740867	     -0.68566664	      1.04316616	      0.65141817	     -6.75432946	      1.55188987	     18.37689540	    -37.68430680	      0.42460647	      5.18293773	     23.01289745	      2.24719602	     12.16964032	    -23.49075781	      6.30550949	      8.49445748	     -0.43622050	     -5.72948040	      1.32750640
      2.08000000	     -4.30117976	     -4.70541794	    112.03404658	     -0.69038836	      1.04428096	      0.64310880	     -5.32038961	      1.32849763	     18.01144662	    -40.61044065	     -2.00246004	      6.93336011	     22.30822198	      2.34357641	     11.18985223	    -23.55340235	      6.83828795	      8.22626108	     -0.62759196	     -6.10172235	      1.23878503
